<svg xmlns="http://www.w3.org/2000/svg" xmlns:xlink="http://www.w3.org/1999/xlink" width="500" zoomAndPan="magnify" viewBox="0 0 375 374.999991" height="500" preserveAspectRatio="xMidYMid meet" version="1.0"><defs><filter x="0%" y="0%" width="100%" height="100%" id="a54dae97cf"><feColorMatrix values="0 0 0 0 1 0 0 0 0 1 0 0 0 0 1 0 0 0 1 0" color-interpolation-filters="sRGB"/></filter><g/><clipPath id="4d25c94262"><path d="M 0 0 L 375 0 L 375 375 L 0 375 Z M 0 0 " clip-rule="nonzero"/></clipPath><linearGradient x1="20.171773" gradientTransform="matrix(0.909352, 0, 0, 0.909433, -18.343237, 20.981981)" y1="182" x2="432.553333" gradientUnits="userSpaceOnUse" y2="182" id="c973247024"><stop stop-opacity="1" stop-color="rgb(80.389404%, 100%, 84.709167%)" offset="0"/><stop stop-opacity="1" stop-color="rgb(80.380249%, 99.989319%, 84.713745%)" offset="0.015625"/><stop stop-opacity="1" stop-color="rgb(80.281067%, 99.867249%, 84.78241%)" offset="0.0234375"/><stop stop-opacity="1" stop-color="rgb(80.099487%, 99.64447%, 84.906006%)" offset="0.03125"/><stop stop-opacity="1" stop-color="rgb(79.917908%, 99.421692%, 85.031128%)" offset="0.0390625"/><stop stop-opacity="1" stop-color="rgb(79.736328%, 99.197388%, 85.154724%)" offset="0.046875"/><stop stop-opacity="1" stop-color="rgb(79.554749%, 98.974609%, 85.279846%)" offset="0.0546875"/><stop stop-opacity="1" stop-color="rgb(79.373169%, 98.751831%, 85.403442%)" offset="0.0625"/><stop stop-opacity="1" stop-color="rgb(79.190063%, 98.527527%, 85.528564%)" offset="0.0703125"/><stop stop-opacity="1" stop-color="rgb(79.008484%, 98.304749%, 85.652161%)" offset="0.078125"/><stop stop-opacity="1" stop-color="rgb(78.826904%, 98.08197%, 85.777283%)" offset="0.0859375"/><stop stop-opacity="1" stop-color="rgb(78.645325%, 97.857666%, 85.900879%)" offset="0.09375"/><stop stop-opacity="1" stop-color="rgb(78.463745%, 97.634888%, 86.026001%)" offset="0.101562"/><stop stop-opacity="1" stop-color="rgb(78.282166%, 97.412109%, 86.149597%)" offset="0.109375"/><stop stop-opacity="1" stop-color="rgb(78.100586%, 97.187805%, 86.274719%)" offset="0.117188"/><stop stop-opacity="1" stop-color="rgb(77.919006%, 96.965027%, 86.398315%)" offset="0.125"/><stop stop-opacity="1" stop-color="rgb(77.735901%, 96.742249%, 86.523438%)" offset="0.132812"/><stop stop-opacity="1" stop-color="rgb(77.554321%, 96.517944%, 86.647034%)" offset="0.140625"/><stop stop-opacity="1" stop-color="rgb(77.372742%, 96.295166%, 86.772156%)" offset="0.148438"/><stop stop-opacity="1" stop-color="rgb(77.191162%, 96.072388%, 86.895752%)" offset="0.15625"/><stop stop-opacity="1" stop-color="rgb(77.009583%, 95.848083%, 87.020874%)" offset="0.164062"/><stop stop-opacity="1" stop-color="rgb(76.828003%, 95.625305%, 87.14447%)" offset="0.171875"/><stop stop-opacity="1" stop-color="rgb(76.646423%, 95.402527%, 87.269592%)" offset="0.179688"/><stop stop-opacity="1" stop-color="rgb(76.463318%, 95.178223%, 87.393188%)" offset="0.1875"/><stop stop-opacity="1" stop-color="rgb(76.281738%, 94.955444%, 87.518311%)" offset="0.195312"/><stop stop-opacity="1" stop-color="rgb(76.100159%, 94.732666%, 87.641907%)" offset="0.203125"/><stop stop-opacity="1" stop-color="rgb(75.918579%, 94.509888%, 87.767029%)" offset="0.210938"/><stop stop-opacity="1" stop-color="rgb(75.737%, 94.285583%, 87.890625%)" offset="0.21875"/><stop stop-opacity="1" stop-color="rgb(75.55542%, 94.062805%, 88.015747%)" offset="0.226562"/><stop stop-opacity="1" stop-color="rgb(75.37384%, 93.840027%, 88.139343%)" offset="0.234375"/><stop stop-opacity="1" stop-color="rgb(75.192261%, 93.615723%, 88.264465%)" offset="0.242188"/><stop stop-opacity="1" stop-color="rgb(75.009155%, 93.392944%, 88.388062%)" offset="0.25"/><stop stop-opacity="1" stop-color="rgb(74.827576%, 93.170166%, 88.513184%)" offset="0.257812"/><stop stop-opacity="1" stop-color="rgb(74.645996%, 92.945862%, 88.63678%)" offset="0.265625"/><stop stop-opacity="1" stop-color="rgb(74.464417%, 92.723083%, 88.761902%)" offset="0.273438"/><stop stop-opacity="1" stop-color="rgb(74.282837%, 92.500305%, 88.885498%)" offset="0.28125"/><stop stop-opacity="1" stop-color="rgb(74.101257%, 92.276001%, 89.01062%)" offset="0.289063"/><stop stop-opacity="1" stop-color="rgb(73.919678%, 92.053223%, 89.134216%)" offset="0.296875"/><stop stop-opacity="1" stop-color="rgb(73.736572%, 91.830444%, 89.259338%)" offset="0.304688"/><stop stop-opacity="1" stop-color="rgb(73.554993%, 91.60614%, 89.382935%)" offset="0.3125"/><stop stop-opacity="1" stop-color="rgb(73.373413%, 91.383362%, 89.508057%)" offset="0.320312"/><stop stop-opacity="1" stop-color="rgb(73.191833%, 91.160583%, 89.631653%)" offset="0.328125"/><stop stop-opacity="1" stop-color="rgb(73.010254%, 90.936279%, 89.756775%)" offset="0.335938"/><stop stop-opacity="1" stop-color="rgb(72.828674%, 90.713501%, 89.880371%)" offset="0.34375"/><stop stop-opacity="1" stop-color="rgb(72.647095%, 90.490723%, 90.005493%)" offset="0.351562"/><stop stop-opacity="1" stop-color="rgb(72.465515%, 90.266418%, 90.129089%)" offset="0.359375"/><stop stop-opacity="1" stop-color="rgb(72.28241%, 90.04364%, 90.254211%)" offset="0.367188"/><stop stop-opacity="1" stop-color="rgb(72.10083%, 89.820862%, 90.377808%)" offset="0.375"/><stop stop-opacity="1" stop-color="rgb(71.91925%, 89.598083%, 90.50293%)" offset="0.382812"/><stop stop-opacity="1" stop-color="rgb(71.737671%, 89.373779%, 90.626526%)" offset="0.390625"/><stop stop-opacity="1" stop-color="rgb(71.556091%, 89.151001%, 90.751648%)" offset="0.398438"/><stop stop-opacity="1" stop-color="rgb(71.374512%, 88.928223%, 90.875244%)" offset="0.40625"/><stop stop-opacity="1" stop-color="rgb(71.192932%, 88.703918%, 91.000366%)" offset="0.414062"/><stop stop-opacity="1" stop-color="rgb(71.011353%, 88.48114%, 91.123962%)" offset="0.421875"/><stop stop-opacity="1" stop-color="rgb(70.828247%, 88.258362%, 91.249084%)" offset="0.429688"/><stop stop-opacity="1" stop-color="rgb(70.646667%, 88.034058%, 91.372681%)" offset="0.4375"/><stop stop-opacity="1" stop-color="rgb(70.465088%, 87.811279%, 91.497803%)" offset="0.445312"/><stop stop-opacity="1" stop-color="rgb(70.283508%, 87.588501%, 91.621399%)" offset="0.453125"/><stop stop-opacity="1" stop-color="rgb(70.101929%, 87.364197%, 91.746521%)" offset="0.460938"/><stop stop-opacity="1" stop-color="rgb(69.920349%, 87.141418%, 91.870117%)" offset="0.46875"/><stop stop-opacity="1" stop-color="rgb(69.73877%, 86.91864%, 91.995239%)" offset="0.476562"/><stop stop-opacity="1" stop-color="rgb(69.555664%, 86.694336%, 92.118835%)" offset="0.484375"/><stop stop-opacity="1" stop-color="rgb(69.374084%, 86.471558%, 92.243958%)" offset="0.492187"/><stop stop-opacity="1" stop-color="rgb(69.192505%, 86.248779%, 92.367554%)" offset="0.5"/><stop stop-opacity="1" stop-color="rgb(69.010925%, 86.024475%, 92.492676%)" offset="0.507812"/><stop stop-opacity="1" stop-color="rgb(68.829346%, 85.801697%, 92.616272%)" offset="0.515625"/><stop stop-opacity="1" stop-color="rgb(68.647766%, 85.578918%, 92.741394%)" offset="0.523438"/><stop stop-opacity="1" stop-color="rgb(68.466187%, 85.35614%, 92.86499%)" offset="0.53125"/><stop stop-opacity="1" stop-color="rgb(68.284607%, 85.131836%, 92.990112%)" offset="0.539062"/><stop stop-opacity="1" stop-color="rgb(68.101501%, 84.909058%, 93.113708%)" offset="0.546875"/><stop stop-opacity="1" stop-color="rgb(67.919922%, 84.686279%, 93.238831%)" offset="0.554688"/><stop stop-opacity="1" stop-color="rgb(67.738342%, 84.461975%, 93.362427%)" offset="0.5625"/><stop stop-opacity="1" stop-color="rgb(67.556763%, 84.239197%, 93.487549%)" offset="0.570312"/><stop stop-opacity="1" stop-color="rgb(67.375183%, 84.016418%, 93.611145%)" offset="0.578125"/><stop stop-opacity="1" stop-color="rgb(67.193604%, 83.792114%, 93.736267%)" offset="0.585938"/><stop stop-opacity="1" stop-color="rgb(67.012024%, 83.569336%, 93.859863%)" offset="0.59375"/><stop stop-opacity="1" stop-color="rgb(66.828918%, 83.346558%, 93.984985%)" offset="0.601563"/><stop stop-opacity="1" stop-color="rgb(66.647339%, 83.122253%, 94.108582%)" offset="0.609375"/><stop stop-opacity="1" stop-color="rgb(66.465759%, 82.899475%, 94.233704%)" offset="0.617188"/><stop stop-opacity="1" stop-color="rgb(66.28418%, 82.676697%, 94.3573%)" offset="0.625"/><stop stop-opacity="1" stop-color="rgb(66.1026%, 82.452393%, 94.482422%)" offset="0.632812"/><stop stop-opacity="1" stop-color="rgb(65.921021%, 82.229614%, 94.606018%)" offset="0.640625"/><stop stop-opacity="1" stop-color="rgb(65.739441%, 82.006836%, 94.73114%)" offset="0.648438"/><stop stop-opacity="1" stop-color="rgb(65.557861%, 81.782532%, 94.854736%)" offset="0.65625"/><stop stop-opacity="1" stop-color="rgb(65.374756%, 81.559753%, 94.979858%)" offset="0.664063"/><stop stop-opacity="1" stop-color="rgb(65.193176%, 81.336975%, 95.103455%)" offset="0.671875"/><stop stop-opacity="1" stop-color="rgb(65.011597%, 81.112671%, 95.228577%)" offset="0.679688"/><stop stop-opacity="1" stop-color="rgb(64.830017%, 80.889893%, 95.352173%)" offset="0.6875"/><stop stop-opacity="1" stop-color="rgb(64.648438%, 80.667114%, 95.477295%)" offset="0.695313"/><stop stop-opacity="1" stop-color="rgb(64.466858%, 80.444336%, 95.600891%)" offset="0.703125"/><stop stop-opacity="1" stop-color="rgb(64.285278%, 80.220032%, 95.726013%)" offset="0.710938"/><stop stop-opacity="1" stop-color="rgb(64.102173%, 79.997253%, 95.849609%)" offset="0.71875"/><stop stop-opacity="1" stop-color="rgb(63.920593%, 79.774475%, 95.974731%)" offset="0.726562"/><stop stop-opacity="1" stop-color="rgb(63.739014%, 79.550171%, 96.098328%)" offset="0.734375"/><stop stop-opacity="1" stop-color="rgb(63.557434%, 79.327393%, 96.22345%)" offset="0.742188"/><stop stop-opacity="1" stop-color="rgb(63.375854%, 79.104614%, 96.347046%)" offset="0.75"/><stop stop-opacity="1" stop-color="rgb(63.194275%, 78.88031%, 96.472168%)" offset="0.757812"/><stop stop-opacity="1" stop-color="rgb(63.012695%, 78.657532%, 96.595764%)" offset="0.765625"/><stop stop-opacity="1" stop-color="rgb(62.831116%, 78.434753%, 96.720886%)" offset="0.773438"/><stop stop-opacity="1" stop-color="rgb(62.64801%, 78.210449%, 96.844482%)" offset="0.78125"/><stop stop-opacity="1" stop-color="rgb(62.466431%, 77.987671%, 96.969604%)" offset="0.789062"/><stop stop-opacity="1" stop-color="rgb(62.284851%, 77.764893%, 97.093201%)" offset="0.796875"/><stop stop-opacity="1" stop-color="rgb(62.103271%, 77.540588%, 97.218323%)" offset="0.804688"/><stop stop-opacity="1" stop-color="rgb(61.921692%, 77.31781%, 97.341919%)" offset="0.8125"/><stop stop-opacity="1" stop-color="rgb(61.740112%, 77.095032%, 97.467041%)" offset="0.820313"/><stop stop-opacity="1" stop-color="rgb(61.558533%, 76.870728%, 97.590637%)" offset="0.828125"/><stop stop-opacity="1" stop-color="rgb(61.375427%, 76.647949%, 97.715759%)" offset="0.835938"/><stop stop-opacity="1" stop-color="rgb(61.193848%, 76.425171%, 97.839355%)" offset="0.84375"/><stop stop-opacity="1" stop-color="rgb(61.012268%, 76.202393%, 97.964478%)" offset="0.851562"/><stop stop-opacity="1" stop-color="rgb(60.830688%, 75.978088%, 98.088074%)" offset="0.859375"/><stop stop-opacity="1" stop-color="rgb(60.649109%, 75.75531%, 98.213196%)" offset="0.867188"/><stop stop-opacity="1" stop-color="rgb(60.467529%, 75.532532%, 98.336792%)" offset="0.875"/><stop stop-opacity="1" stop-color="rgb(60.28595%, 75.308228%, 98.461914%)" offset="0.882812"/><stop stop-opacity="1" stop-color="rgb(60.10437%, 75.085449%, 98.58551%)" offset="0.890625"/><stop stop-opacity="1" stop-color="rgb(59.921265%, 74.862671%, 98.710632%)" offset="0.898438"/><stop stop-opacity="1" stop-color="rgb(59.739685%, 74.638367%, 98.834229%)" offset="0.90625"/><stop stop-opacity="1" stop-color="rgb(59.558105%, 74.415588%, 98.959351%)" offset="0.914062"/><stop stop-opacity="1" stop-color="rgb(59.376526%, 74.19281%, 99.082947%)" offset="0.921875"/><stop stop-opacity="1" stop-color="rgb(59.194946%, 73.968506%, 99.208069%)" offset="0.929688"/><stop stop-opacity="1" stop-color="rgb(59.013367%, 73.745728%, 99.331665%)" offset="0.9375"/><stop stop-opacity="1" stop-color="rgb(58.831787%, 73.522949%, 99.456787%)" offset="0.945312"/><stop stop-opacity="1" stop-color="rgb(58.648682%, 73.298645%, 99.580383%)" offset="0.953125"/><stop stop-opacity="1" stop-color="rgb(58.467102%, 73.075867%, 99.705505%)" offset="0.960938"/><stop stop-opacity="1" stop-color="rgb(58.285522%, 72.853088%, 99.829102%)" offset="0.96875"/><stop stop-opacity="1" stop-color="rgb(58.117676%, 72.645569%, 99.945068%)" offset="1"/></linearGradient><clipPath id="823c5bd899"><rect x="0" width="375" y="0" height="375"/></clipPath><clipPath id="7d2dfce176"><rect x="0" width="375" y="0" height="375"/></clipPath><clipPath id="c35072088b"><rect x="0" width="375" y="0" height="375"/></clipPath><mask id="8976ccc259"><g filter="url(#a54dae97cf)"><g transform="matrix(1, 0, 0, 1, 0, 0)"><g clip-path="url(#c35072088b)"><g transform="matrix(1, 0, 0, 1, 0, 0)"><g clip-path="url(#7d2dfce176)"><g fill="#000000" fill-opacity="1"><g transform="translate(5.967825, 271.967446)"><g><path d="M 81.734375 -84.75 C 70.941406 -84.75 62.8125 -84.535156 57.34375 -84.109375 C 51.875 -83.679688 48.289062 -82.96875 46.59375 -81.96875 C 45.820312 -81.425781 45.28125 -80.382812 44.96875 -78.84375 C 44.664062 -77.300781 44.515625 -74.453125 44.515625 -70.296875 L 44.515625 -58.046875 C 44.515625 -40.003906 44.820312 -28.628906 45.4375 -23.921875 C 46.050781 -19.222656 47.171875 -16.375 48.796875 -15.375 C 50.023438 -14.6875 51.953125 -13.878906 54.578125 -12.953125 C 59.429688 -11.410156 61.859375 -9.519531 61.859375 -7.28125 C 61.859375 -4.425781 59.71875 -2.34375 55.4375 -1.03125 C 51.15625 0.269531 44.125 0.921875 34.34375 0.921875 C 24.625 0.921875 17.644531 0.285156 13.40625 -0.984375 C 9.164062 -2.253906 7.046875 -4.351562 7.046875 -7.28125 C 7.046875 -9.519531 9.257812 -11.367188 13.6875 -12.828125 C 18.125 -14.296875 20.648438 -15.453125 21.265625 -16.296875 C 22.503906 -17.835938 23.375 -23.460938 23.875 -33.171875 C 24.375 -42.890625 24.625 -60.660156 24.625 -86.484375 C 24.625 -112.066406 24.375 -129.675781 23.875 -139.3125 C 23.375 -148.945312 22.503906 -154.535156 21.265625 -156.078125 C 20.648438 -156.929688 18.125 -158.085938 13.6875 -159.546875 C 9.257812 -161.015625 7.046875 -162.828125 7.046875 -164.984375 C 7.046875 -167.992188 9.203125 -170.171875 13.515625 -171.515625 C 17.835938 -172.867188 24.78125 -173.546875 34.34375 -173.546875 C 43.894531 -173.546875 50.867188 -172.867188 55.265625 -171.515625 C 59.660156 -170.171875 61.859375 -167.992188 61.859375 -164.984375 C 61.859375 -162.898438 59.503906 -161.085938 54.796875 -159.546875 C 52.023438 -158.703125 50.023438 -157.929688 48.796875 -157.234375 C 47.171875 -156.304688 46.050781 -153.238281 45.4375 -148.03125 C 44.820312 -142.832031 44.515625 -131.523438 44.515625 -114.109375 L 44.515625 -110.296875 C 44.515625 -106.984375 44.664062 -104.671875 44.96875 -103.359375 C 45.28125 -102.046875 45.820312 -101.117188 46.59375 -100.578125 C 48.363281 -99.660156 52.117188 -99.007812 57.859375 -98.625 C 63.609375 -98.238281 74.457031 -98.046875 90.40625 -98.046875 C 104.28125 -98.046875 114.257812 -98.238281 120.34375 -98.625 C 126.4375 -99.007812 130.332031 -99.660156 132.03125 -100.578125 C 132.882812 -101.046875 133.460938 -101.914062 133.765625 -103.1875 C 134.078125 -104.457031 134.234375 -106.828125 134.234375 -110.296875 L 134.234375 -117.703125 C 134.234375 -133.578125 133.921875 -143.898438 133.296875 -148.671875 C 132.679688 -153.453125 131.566406 -156.304688 129.953125 -157.234375 C 128.796875 -157.929688 126.832031 -158.703125 124.0625 -159.546875 C 119.351562 -161.085938 117 -162.898438 117 -164.984375 C 117 -167.992188 119.140625 -170.171875 123.421875 -171.515625 C 127.703125 -172.867188 134.617188 -173.546875 144.171875 -173.546875 C 153.734375 -173.546875 160.671875 -172.867188 164.984375 -171.515625 C 169.296875 -170.171875 171.453125 -167.992188 171.453125 -164.984375 C 171.453125 -162.828125 169.273438 -161.015625 164.921875 -159.546875 C 160.566406 -158.085938 158.082031 -156.929688 157.46875 -156.078125 C 156.15625 -154.460938 155.226562 -148.507812 154.6875 -138.21875 C 154.15625 -127.925781 153.890625 -110.679688 153.890625 -86.484375 C 153.890625 -62.429688 154.15625 -45.125 154.6875 -34.5625 C 155.226562 -24.007812 156.078125 -17.921875 157.234375 -16.296875 C 157.929688 -15.453125 160.472656 -14.296875 164.859375 -12.828125 C 169.253906 -11.367188 171.453125 -9.519531 171.453125 -7.28125 C 171.453125 -4.351562 169.332031 -2.253906 165.09375 -0.984375 C 160.851562 0.285156 153.878906 0.921875 144.171875 0.921875 C 134.460938 0.921875 127.503906 0.285156 123.296875 -0.984375 C 119.097656 -2.253906 117 -4.351562 117 -7.28125 C 117 -9.519531 119.390625 -11.410156 124.171875 -12.953125 C 126.867188 -13.878906 128.796875 -14.6875 129.953125 -15.375 C 131.492188 -16.375 132.550781 -19.300781 133.125 -24.15625 C 133.707031 -29.019531 134 -38.15625 134 -51.5625 L 134 -74.34375 C 134 -77.65625 133.707031 -79.773438 133.125 -80.703125 C 132.550781 -81.628906 131.492188 -82.359375 129.953125 -82.890625 C 128.253906 -83.515625 123.28125 -83.976562 115.03125 -84.28125 C 106.789062 -84.59375 95.691406 -84.75 81.734375 -84.75 Z M 81.734375 -84.75 "/></g></g><g transform="translate(184.712591, 271.967446)"><g><path d="M 37.234375 -141.859375 L 37.234375 -86.484375 C 37.234375 -63.515625 37.5 -46.476562 38.03125 -35.375 C 38.570312 -24.28125 39.460938 -17.960938 40.703125 -16.421875 C 41.390625 -15.492188 43.96875 -14.296875 48.4375 -12.828125 C 52.914062 -11.367188 55.15625 -9.519531 55.15625 -7.28125 C 55.15625 -4.507812 53.285156 -2.488281 49.546875 -1.21875 C 45.804688 0.0507812 39.695312 0.6875 31.21875 0.6875 C 22.664062 0.6875 16.460938 0.0507812 12.609375 -1.21875 C 8.753906 -2.488281 6.828125 -4.507812 6.828125 -7.28125 C 6.828125 -9.519531 9.078125 -11.367188 13.578125 -12.828125 C 18.085938 -14.296875 20.648438 -15.453125 21.265625 -16.296875 C 22.503906 -17.835938 23.375 -23.460938 23.875 -33.171875 C 24.375 -42.890625 24.625 -60.660156 24.625 -86.484375 C 24.625 -112.066406 24.375 -129.675781 23.875 -139.3125 C 23.375 -148.945312 22.503906 -154.535156 21.265625 -156.078125 C 20.648438 -156.929688 18.085938 -158.085938 13.578125 -159.546875 C 9.078125 -161.015625 6.828125 -162.828125 6.828125 -164.984375 C 6.828125 -167.679688 8.484375 -169.703125 11.796875 -171.046875 C 15.109375 -172.398438 19.925781 -173.078125 26.25 -173.078125 C 31.175781 -173.078125 34.945312 -172.5 37.5625 -171.34375 C 40.1875 -170.1875 42.734375 -167.910156 45.203125 -164.515625 C 46.585938 -162.742188 49.328125 -159.082031 53.421875 -153.53125 C 84.085938 -111.914062 115.6875 -71.375 148.21875 -31.90625 L 148.21875 -86.140625 C 148.21875 -113.734375 147.96875 -131.898438 147.46875 -140.640625 C 146.96875 -149.390625 146.097656 -154.535156 144.859375 -156.078125 C 144.242188 -156.929688 141.679688 -158.085938 137.171875 -159.546875 C 132.671875 -161.015625 130.421875 -162.828125 130.421875 -164.984375 C 130.421875 -167.835938 132.328125 -169.898438 136.140625 -171.171875 C 139.953125 -172.441406 146.097656 -173.078125 154.578125 -173.078125 C 163.128906 -173.078125 169.289062 -172.441406 173.0625 -171.171875 C 176.84375 -169.898438 178.734375 -167.835938 178.734375 -164.984375 C 178.734375 -163.984375 178.253906 -163.054688 177.296875 -162.203125 C 176.335938 -161.359375 174.851562 -160.550781 172.84375 -159.78125 C 172.300781 -159.625 171.53125 -159.394531 170.53125 -159.09375 C 166.289062 -157.78125 163.898438 -156.117188 163.359375 -154.109375 C 162.515625 -151.109375 161.878906 -140.007812 161.453125 -120.8125 C 161.035156 -101.625 160.828125 -75.148438 160.828125 -41.390625 L 160.828125 -8.328125 C 160.828125 -3.703125 160.441406 -0.890625 159.671875 0.109375 C 158.898438 1.117188 157.550781 1.625 155.625 1.625 C 153 1.625 150.722656 1.046875 148.796875 -0.109375 C 146.867188 -1.265625 144.054688 -4.082031 140.359375 -8.5625 C 132.578125 -18.039062 119.066406 -35.171875 99.828125 -59.953125 C 80.597656 -84.734375 59.734375 -112.035156 37.234375 -141.859375 Z M 37.234375 -141.859375 "/></g></g></g></g></g></g></g></g></mask><clipPath id="13c120277f"><path d="M 0 0 L 375 0 L 375 375 L 0 375 Z M 0 0 " clip-rule="nonzero"/></clipPath><clipPath id="b724a886db"><rect x="0" width="375" y="0" height="375"/></clipPath><clipPath id="37607712b4"><rect x="0" width="375" y="0" height="375"/></clipPath><clipPath id="0f3d966074"><rect x="0" width="375" y="0" height="375"/></clipPath></defs><g transform="matrix(1, 0, 0, 1, 0, 0)"><g clip-path="url(#0f3d966074)"><g fill="#001780" fill-opacity="1"><g transform="translate(5.967825, 271.967446)"><g><path d="M 81.742188 -75.867188 C 71.179688 -75.867188 63.277344 -75.664062 58.03125 -75.257812 C 55.648438 -75.074219 53.730469 -74.835938 52.285156 -74.550781 C 51.730469 -74.441406 51.292969 -74.332031 50.964844 -74.226562 C 50.890625 -74.199219 50.839844 -74.183594 50.820312 -74.175781 C 50.898438 -74.207031 50.996094 -74.257812 51.109375 -74.328125 L 46.59375 -81.972656 L 51.6875 -74.699219 C 52.492188 -75.261719 53.09375 -75.929688 53.496094 -76.699219 C 53.578125 -76.863281 53.644531 -77.011719 53.6875 -77.144531 C 53.691406 -77.164062 53.695312 -77.175781 53.699219 -77.183594 C 53.695312 -77.164062 53.6875 -77.140625 53.683594 -77.109375 C 53.488281 -76.144531 53.390625 -73.871094 53.390625 -70.296875 L 53.390625 -58.039062 C 53.390625 -40.390625 53.675781 -29.40625 54.242188 -25.085938 C 54.457031 -23.453125 54.710938 -22.261719 55.007812 -21.507812 C 55.03125 -21.445312 55.046875 -21.402344 55.058594 -21.382812 C 55.027344 -21.445312 54.976562 -21.523438 54.910156 -21.617188 C 54.558594 -22.109375 54.078125 -22.546875 53.464844 -22.925781 L 48.789062 -15.378906 L 53.144531 -23.117188 C 53.929688 -22.675781 55.390625 -22.078125 57.527344 -21.324219 L 54.570312 -12.949219 L 57.257812 -21.414062 C 66.242188 -18.558594 70.734375 -13.851562 70.734375 -7.285156 C 70.734375 -5.34375 70.355469 -3.5 69.601562 -1.757812 C 68.867188 -0.0664062 67.816406 1.445312 66.445312 2.78125 C 64.347656 4.820312 61.546875 6.375 58.039062 7.449219 C 52.914062 9.019531 45.015625 9.804688 34.339844 9.804688 C 23.757812 9.804688 15.929688 9.042969 10.859375 7.523438 C 7.324219 6.460938 4.503906 4.886719 2.390625 2.796875 C -0.421875 0.0078125 -1.828125 -3.351562 -1.828125 -7.285156 C -1.828125 -9.34375 -1.332031 -11.289062 -0.335938 -13.121094 C 0.480469 -14.628906 1.601562 -15.976562 3.023438 -17.164062 C 4.996094 -18.8125 7.628906 -20.179688 10.914062 -21.265625 C 12.820312 -21.894531 14.253906 -22.429688 15.21875 -22.871094 C 15.476562 -22.992188 15.628906 -23.0625 15.675781 -23.09375 C 15.125 -22.742188 14.597656 -22.21875 14.09375 -21.523438 L 14.210938 -21.691406 L 14.339844 -21.847656 C 14.019531 -21.449219 13.773438 -21.058594 13.609375 -20.683594 C 13.585938 -20.636719 13.574219 -20.605469 13.566406 -20.582031 C 13.574219 -20.613281 13.589844 -20.660156 13.609375 -20.722656 C 13.761719 -21.242188 13.914062 -22.011719 14.074219 -23.03125 C 14.460938 -25.546875 14.773438 -29.082031 15.007812 -33.640625 C 15.5 -43.199219 15.746094 -60.8125 15.746094 -86.480469 C 15.746094 -111.917969 15.5 -129.375 15.007812 -138.859375 C 14.773438 -143.375 14.460938 -146.878906 14.074219 -149.375 C 13.917969 -150.382812 13.761719 -151.144531 13.613281 -151.660156 C 13.59375 -151.71875 13.582031 -151.765625 13.570312 -151.792969 C 13.578125 -151.773438 13.589844 -151.738281 13.613281 -151.691406 C 13.777344 -151.320312 14.019531 -150.933594 14.339844 -150.535156 L 14.210938 -150.695312 L 14.09375 -150.859375 C 14.597656 -150.167969 15.125 -149.644531 15.675781 -149.292969 C 15.628906 -149.320312 15.476562 -149.394531 15.21875 -149.511719 C 14.253906 -149.957031 12.820312 -150.492188 10.914062 -151.121094 C 7.65625 -152.195312 5.050781 -153.535156 3.09375 -155.132812 C 1.667969 -156.300781 0.542969 -157.625 -0.285156 -159.105469 C -1.3125 -160.945312 -1.828125 -162.90625 -1.828125 -164.984375 C -1.828125 -168.925781 -0.429688 -172.304688 2.363281 -175.125 C 4.480469 -177.257812 7.316406 -178.882812 10.878906 -179.996094 C 16.058594 -181.613281 23.878906 -182.421875 34.339844 -182.421875 C 44.785156 -182.421875 52.628906 -181.617188 57.871094 -180.007812 C 61.460938 -178.90625 64.324219 -177.296875 66.460938 -175.179688 C 69.308594 -172.355469 70.734375 -168.957031 70.734375 -164.984375 C 70.734375 -158.617188 66.347656 -153.992188 57.570312 -151.113281 C 55.292969 -150.417969 53.816406 -149.878906 53.144531 -149.5 C 53.953125 -149.960938 54.566406 -150.503906 54.992188 -151.121094 C 55.0625 -151.226562 55.117188 -151.3125 55.152344 -151.378906 C 55.136719 -151.347656 55.113281 -151.289062 55.082031 -151.207031 C 54.757812 -150.320312 54.484375 -148.921875 54.253906 -147.003906 C 53.679688 -142.148438 53.390625 -131.183594 53.390625 -114.113281 L 53.390625 -110.300781 C 53.390625 -107.671875 53.46875 -106.039062 53.617188 -105.394531 C 53.570312 -105.601562 53.457031 -105.859375 53.28125 -106.160156 C 52.898438 -106.820312 52.363281 -107.386719 51.6875 -107.863281 L 46.59375 -100.585938 L 50.703125 -108.460938 C 50.609375 -108.507812 50.539062 -108.542969 50.492188 -108.558594 C 50.542969 -108.539062 50.625 -108.511719 50.734375 -108.480469 C 51.125 -108.371094 51.636719 -108.261719 52.265625 -108.148438 C 53.835938 -107.875 55.902344 -107.652344 58.460938 -107.480469 C 64.003906 -107.109375 74.65625 -106.921875 90.414062 -106.921875 C 104.101562 -106.921875 113.894531 -107.109375 119.796875 -107.484375 C 122.535156 -107.65625 124.726562 -107.882812 126.371094 -108.160156 C 127.027344 -108.269531 127.546875 -108.378906 127.933594 -108.488281 C 128.03125 -108.515625 128.09375 -108.535156 128.128906 -108.546875 C 128.035156 -108.511719 127.921875 -108.457031 127.78125 -108.382812 C 126.925781 -107.914062 126.238281 -107.289062 125.714844 -106.511719 C 125.425781 -106.074219 125.230469 -105.664062 125.140625 -105.28125 C 125.28125 -105.863281 125.351562 -107.539062 125.351562 -110.300781 L 125.351562 -117.699219 C 125.351562 -133.195312 125.066406 -143.144531 124.5 -147.546875 C 124.285156 -149.214844 124.03125 -150.421875 123.738281 -151.167969 C 123.71875 -151.222656 123.703125 -151.253906 123.699219 -151.261719 C 123.742188 -151.179688 123.804688 -151.085938 123.882812 -150.976562 C 124.289062 -150.414062 124.84375 -149.933594 125.546875 -149.53125 C 124.90625 -149.914062 123.542969 -150.425781 121.460938 -151.058594 C 112.570312 -153.972656 108.125 -158.617188 108.125 -164.984375 C 108.125 -168.910156 109.507812 -172.28125 112.273438 -175.097656 C 114.378906 -177.238281 117.203125 -178.867188 120.75 -179.988281 C 125.898438 -181.609375 133.707031 -182.421875 144.175781 -182.421875 C 154.636719 -182.421875 162.457031 -181.613281 167.636719 -179.996094 C 171.195312 -178.882812 174.035156 -177.257812 176.148438 -175.125 C 178.945312 -172.304688 180.339844 -168.925781 180.339844 -164.984375 C 180.339844 -162.929688 179.839844 -160.988281 178.839844 -159.160156 C 178.023438 -157.679688 176.914062 -156.355469 175.507812 -155.183594 C 173.566406 -153.570312 170.984375 -152.21875 167.757812 -151.136719 C 165.894531 -150.507812 164.488281 -149.976562 163.542969 -149.535156 C 163.292969 -149.417969 163.144531 -149.347656 163.101562 -149.320312 C 163.640625 -149.667969 164.15625 -150.179688 164.652344 -150.859375 L 164.515625 -150.675781 L 164.371094 -150.496094 C 164.691406 -150.890625 164.933594 -151.269531 165.097656 -151.636719 C 165.117188 -151.675781 165.125 -151.699219 165.132812 -151.714844 C 165.117188 -151.671875 165.097656 -151.617188 165.078125 -151.542969 C 164.910156 -150.972656 164.738281 -150.140625 164.570312 -149.039062 C 164.152344 -146.363281 163.816406 -142.601562 163.5625 -137.753906 C 163.03125 -127.621094 162.765625 -110.53125 162.765625 -86.480469 C 162.765625 -62.585938 163.03125 -45.433594 163.566406 -35.023438 C 163.820312 -30 164.144531 -26.097656 164.53125 -23.308594 C 164.695312 -22.125 164.859375 -21.21875 165.023438 -20.589844 C 165.046875 -20.496094 165.070312 -20.417969 165.089844 -20.359375 L 165.082031 -20.375 C 164.949219 -20.710938 164.742188 -21.074219 164.464844 -21.464844 L 157.238281 -16.300781 L 164.113281 -21.925781 C 163.660156 -22.476562 163.214844 -22.890625 162.78125 -23.160156 C 162.863281 -23.105469 163.050781 -23.015625 163.34375 -22.882812 C 164.332031 -22.433594 165.777344 -21.890625 167.679688 -21.257812 C 170.949219 -20.167969 173.566406 -18.792969 175.53125 -17.140625 C 176.949219 -15.949219 178.058594 -14.601562 178.871094 -13.09375 C 179.851562 -11.269531 180.339844 -9.332031 180.339844 -7.285156 C 180.339844 -3.351562 178.933594 0.0078125 176.121094 2.796875 C 174.011719 4.886719 171.1875 6.460938 167.652344 7.523438 C 162.582031 9.042969 154.753906 9.804688 144.175781 9.804688 C 133.585938 9.804688 125.773438 9.042969 120.734375 7.515625 C 117.210938 6.449219 114.402344 4.867188 112.300781 2.765625 C 109.515625 -0.015625 108.125 -3.367188 108.125 -7.285156 C 108.125 -9.433594 108.671875 -11.453125 109.769531 -13.347656 C 110.632812 -14.839844 111.808594 -16.171875 113.292969 -17.34375 C 115.324219 -18.949219 118.042969 -20.300781 121.445312 -21.398438 C 123.453125 -22.089844 124.765625 -22.617188 125.386719 -22.992188 L 129.953125 -15.378906 L 125.113281 -22.824219 C 124.46875 -22.402344 123.96875 -21.925781 123.613281 -21.390625 C 123.554688 -21.300781 123.511719 -21.230469 123.488281 -21.175781 C 123.503906 -21.207031 123.527344 -21.265625 123.554688 -21.347656 C 123.855469 -22.171875 124.109375 -23.460938 124.316406 -25.214844 C 124.851562 -29.722656 125.121094 -38.503906 125.121094 -51.566406 L 125.121094 -74.34375 C 125.121094 -75.597656 125.074219 -76.554688 124.984375 -77.21875 C 124.972656 -77.304688 124.960938 -77.375 124.953125 -77.429688 C 124.953125 -77.417969 124.960938 -77.394531 124.972656 -77.351562 C 125.09375 -76.925781 125.304688 -76.472656 125.605469 -75.996094 C 125.964844 -75.417969 126.382812 -74.96875 126.859375 -74.636719 C 126.957031 -74.570312 127.046875 -74.515625 127.121094 -74.480469 C 127.109375 -74.484375 127.074219 -74.496094 127.019531 -74.515625 C 127.046875 -74.507812 127.097656 -74.488281 127.175781 -74.46875 C 127.050781 -74.496094 126.875 -74.527344 126.648438 -74.566406 C 126.015625 -74.667969 125.175781 -74.769531 124.132812 -74.867188 C 121.808594 -75.082031 118.667969 -75.261719 114.707031 -75.410156 C 106.570312 -75.714844 95.582031 -75.867188 81.742188 -75.867188 Z M 81.742188 -93.628906 C 95.804688 -93.628906 107.011719 -93.472656 115.371094 -93.160156 C 119.660156 -93 123.128906 -92.796875 125.777344 -92.546875 C 129.019531 -92.246094 131.390625 -91.824219 132.886719 -91.277344 C 136.390625 -90.050781 138.984375 -88.09375 140.664062 -85.40625 C 141.625 -83.867188 142.265625 -81.9375 142.582031 -79.617188 C 142.78125 -78.160156 142.878906 -76.402344 142.878906 -74.34375 L 142.878906 -51.566406 C 142.878906 -37.800781 142.570312 -28.320312 141.949219 -23.113281 C 141.582031 -20.011719 141.015625 -17.40625 140.253906 -15.304688 C 139.050781 -11.972656 137.230469 -9.515625 134.792969 -7.933594 L 134.660156 -7.84375 L 134.523438 -7.761719 C 132.832031 -6.746094 130.289062 -5.660156 126.898438 -4.5 C 125.527344 -4.054688 124.660156 -3.691406 124.304688 -3.410156 C 124.589844 -3.636719 124.867188 -3.980469 125.136719 -4.445312 C 125.636719 -5.304688 125.882812 -6.25 125.882812 -7.285156 C 125.882812 -8.273438 125.542969 -9.105469 124.859375 -9.789062 C 124.785156 -9.863281 124.71875 -9.921875 124.660156 -9.964844 C 124.667969 -9.960938 124.695312 -9.945312 124.738281 -9.921875 C 125.011719 -9.777344 125.390625 -9.628906 125.878906 -9.480469 C 129.242188 -8.464844 135.339844 -7.953125 144.175781 -7.953125 C 153.019531 -7.953125 159.144531 -8.464844 162.550781 -9.488281 C 163.050781 -9.636719 163.445312 -9.789062 163.722656 -9.9375 C 163.773438 -9.964844 163.804688 -9.980469 163.8125 -9.988281 C 163.757812 -9.949219 163.695312 -9.890625 163.621094 -9.820312 C 163.316406 -9.519531 163.070312 -9.144531 162.878906 -8.691406 C 162.679688 -8.21875 162.582031 -7.75 162.582031 -7.285156 C 162.582031 -6.351562 162.796875 -5.484375 163.226562 -4.683594 C 163.488281 -4.195312 163.777344 -3.820312 164.09375 -3.554688 L 164.105469 -3.539062 C 164.019531 -3.59375 163.90625 -3.660156 163.765625 -3.730469 C 163.324219 -3.953125 162.753906 -4.179688 162.0625 -4.410156 C 159.570312 -5.238281 157.546875 -6.007812 155.992188 -6.714844 C 153.464844 -7.863281 151.589844 -9.1875 150.367188 -10.679688 L 150.183594 -10.902344 L 150.015625 -11.140625 C 149.089844 -12.4375 148.363281 -14.097656 147.835938 -16.121094 C 147.5 -17.417969 147.203125 -18.996094 146.941406 -20.859375 C 146.480469 -24.160156 146.109375 -28.578125 145.828125 -34.117188 C 145.28125 -44.828125 145.007812 -62.28125 145.007812 -86.480469 C 145.007812 -110.839844 145.28125 -128.242188 145.828125 -138.6875 C 146.113281 -144.132812 146.511719 -148.492188 147.019531 -151.765625 C 147.3125 -153.644531 147.652344 -155.246094 148.042969 -156.570312 C 148.65625 -158.648438 149.5 -160.347656 150.570312 -161.671875 L 157.472656 -156.082031 L 150.289062 -161.304688 C 151.5 -162.96875 153.421875 -164.414062 156.054688 -165.636719 C 157.59375 -166.355469 159.609375 -167.132812 162.097656 -167.96875 C 162.792969 -168.203125 163.363281 -168.429688 163.804688 -168.652344 C 163.949219 -168.726562 164.066406 -168.789062 164.15625 -168.847656 L 164.148438 -168.835938 C 163.828125 -168.570312 163.535156 -168.191406 163.265625 -167.703125 C 162.808594 -166.871094 162.582031 -165.964844 162.582031 -164.984375 C 162.582031 -164.050781 162.898438 -163.265625 163.535156 -162.621094 C 163.597656 -162.558594 163.652344 -162.511719 163.695312 -162.480469 C 163.671875 -162.496094 163.632812 -162.519531 163.570312 -162.554688 C 163.273438 -162.714844 162.863281 -162.878906 162.335938 -163.042969 C 158.882812 -164.121094 152.828125 -164.664062 144.175781 -164.664062 C 135.527344 -164.664062 129.5 -164.125 126.09375 -163.050781 C 125.582031 -162.890625 125.179688 -162.730469 124.890625 -162.570312 C 124.835938 -162.539062 124.796875 -162.515625 124.78125 -162.503906 C 124.824219 -162.539062 124.878906 -162.585938 124.945312 -162.652344 C 125.570312 -163.289062 125.882812 -164.066406 125.882812 -164.984375 C 125.882812 -166.113281 125.605469 -167.140625 125.046875 -168.066406 C 124.765625 -168.53125 124.480469 -168.875 124.1875 -169.101562 C 124.558594 -168.816406 125.378906 -168.460938 126.652344 -168.042969 C 130.121094 -166.984375 132.691406 -165.953125 134.359375 -164.949219 C 136.980469 -163.453125 138.953125 -161.015625 140.273438 -157.648438 C 141.097656 -155.542969 141.710938 -152.933594 142.113281 -149.820312 C 142.777344 -144.664062 143.113281 -133.957031 143.113281 -117.699219 L 143.113281 -110.300781 C 143.113281 -106.125 142.875 -103.054688 142.398438 -101.097656 C 142 -99.441406 141.363281 -97.964844 140.492188 -96.660156 C 139.394531 -95.011719 137.992188 -93.722656 136.289062 -92.792969 C 134.566406 -91.855469 132.242188 -91.136719 129.316406 -90.644531 C 127.070312 -90.265625 124.269531 -89.972656 120.917969 -89.761719 C 114.644531 -89.363281 104.472656 -89.164062 90.414062 -89.164062 C 74.257812 -89.164062 63.210938 -89.363281 57.273438 -89.761719 C 54.089844 -89.976562 51.402344 -90.273438 49.214844 -90.65625 C 46.429688 -91.140625 44.1875 -91.828125 42.488281 -92.714844 L 41.976562 -92.980469 L 41.5 -93.3125 C 38.878906 -95.148438 37.15625 -97.820312 36.332031 -101.328125 C 35.867188 -103.308594 35.632812 -106.296875 35.632812 -110.300781 L 35.632812 -114.113281 C 35.632812 -131.882812 35.960938 -143.542969 36.621094 -149.09375 C 37.007812 -152.378906 37.601562 -155.113281 38.394531 -157.292969 C 39.699219 -160.859375 41.710938 -163.421875 44.4375 -164.980469 C 46.230469 -165.988281 48.761719 -166.992188 52.035156 -167.988281 C 53.421875 -168.445312 54.300781 -168.816406 54.671875 -169.101562 C 54.378906 -168.875 54.09375 -168.53125 53.8125 -168.066406 C 53.253906 -167.140625 52.976562 -166.113281 52.976562 -164.984375 C 52.976562 -164.535156 53.074219 -164.078125 53.269531 -163.621094 C 53.449219 -163.195312 53.675781 -162.84375 53.957031 -162.566406 C 54.015625 -162.507812 54.066406 -162.464844 54.105469 -162.4375 C 54.078125 -162.457031 54.027344 -162.484375 53.960938 -162.523438 C 53.640625 -162.691406 53.207031 -162.863281 52.660156 -163.03125 C 49.113281 -164.117188 43.007812 -164.664062 34.339844 -164.664062 C 25.683594 -164.664062 19.628906 -164.121094 16.175781 -163.042969 C 15.652344 -162.878906 15.242188 -162.714844 14.941406 -162.554688 C 14.882812 -162.519531 14.839844 -162.496094 14.820312 -162.480469 C 14.863281 -162.511719 14.914062 -162.558594 14.976562 -162.621094 C 15.613281 -163.265625 15.933594 -164.050781 15.933594 -164.984375 C 15.933594 -165.988281 15.695312 -166.914062 15.222656 -167.761719 C 14.949219 -168.25 14.652344 -168.625 14.335938 -168.882812 L 14.34375 -168.882812 C 14.441406 -168.824219 14.566406 -168.757812 14.71875 -168.679688 C 15.179688 -168.453125 15.769531 -168.222656 16.488281 -167.984375 C 19.011719 -167.148438 21.054688 -166.375 22.617188 -165.660156 C 25.289062 -164.4375 27.234375 -162.984375 28.453125 -161.304688 L 21.273438 -156.082031 L 28.207031 -161.628906 C 29.242188 -160.335938 30.054688 -158.6875 30.648438 -156.679688 C 31.019531 -155.410156 31.347656 -153.882812 31.625 -152.097656 C 32.105469 -149.003906 32.476562 -144.898438 32.742188 -139.78125 C 33.25 -129.992188 33.507812 -112.226562 33.507812 -86.480469 C 33.507812 -60.507812 33.25 -42.589844 32.742188 -32.726562 C 32.476562 -27.570312 32.105469 -23.4375 31.625 -20.324219 C 31.347656 -18.53125 31.023438 -17 30.652344 -15.726562 C 30.058594 -13.710938 29.246094 -12.050781 28.207031 -10.753906 L 21.273438 -16.300781 L 28.453125 -11.078125 C 27.234375 -9.402344 25.289062 -7.949219 22.617188 -6.726562 C 21.054688 -6.011719 19.011719 -5.238281 16.488281 -4.402344 C 15.78125 -4.167969 15.203125 -3.941406 14.753906 -3.714844 C 14.609375 -3.644531 14.492188 -3.578125 14.398438 -3.519531 L 14.40625 -3.53125 C 14.722656 -3.792969 15.011719 -4.167969 15.273438 -4.652344 C 15.710938 -5.464844 15.933594 -6.339844 15.933594 -7.285156 C 15.933594 -7.75 15.832031 -8.21875 15.632812 -8.691406 C 15.441406 -9.144531 15.195312 -9.519531 14.894531 -9.820312 C 14.820312 -9.890625 14.753906 -9.949219 14.699219 -9.988281 C 14.710938 -9.980469 14.738281 -9.964844 14.789062 -9.9375 C 15.070312 -9.789062 15.460938 -9.636719 15.964844 -9.488281 C 19.371094 -8.464844 25.496094 -7.953125 34.339844 -7.953125 C 43.242188 -7.953125 49.40625 -8.480469 52.839844 -9.53125 C 53.371094 -9.695312 53.789062 -9.855469 54.097656 -10.019531 C 54.160156 -10.050781 54.203125 -10.078125 54.226562 -10.09375 C 54.179688 -10.0625 54.125 -10.011719 54.058594 -9.949219 C 53.753906 -9.652344 53.503906 -9.277344 53.308594 -8.820312 C 53.085938 -8.3125 52.976562 -7.800781 52.976562 -7.285156 C 52.976562 -6.230469 53.234375 -5.265625 53.75 -4.390625 C 54.019531 -3.929688 54.296875 -3.589844 54.582031 -3.367188 C 54.203125 -3.664062 53.304688 -4.035156 51.882812 -4.484375 L 51.75 -4.527344 L 51.617188 -4.574219 C 48.511719 -5.671875 46.117188 -6.691406 44.4375 -7.636719 L 44.273438 -7.730469 L 44.117188 -7.828125 C 41.632812 -9.367188 39.75 -11.765625 38.472656 -15.027344 C 37.648438 -17.125 37.035156 -19.710938 36.632812 -22.777344 C 35.964844 -27.863281 35.632812 -39.617188 35.632812 -58.039062 L 35.632812 -70.296875 C 35.632812 -75.042969 35.84375 -78.476562 36.269531 -80.59375 C 37.042969 -84.460938 38.785156 -87.347656 41.5 -89.246094 L 41.78125 -89.445312 L 42.078125 -89.617188 C 43.792969 -90.632812 46.039062 -91.414062 48.820312 -91.96875 C 50.960938 -92.394531 53.574219 -92.726562 56.660156 -92.964844 C 62.363281 -93.40625 70.722656 -93.628906 81.742188 -93.628906 Z M 81.742188 -93.628906 "/></g></g></g><g fill="#001780" fill-opacity="1"><g transform="translate(184.712592, 271.967446)"><g><path d="M 46.109375 -141.863281 L 46.109375 -86.480469 C 46.109375 -63.65625 46.375 -46.765625 46.90625 -35.808594 C 47.164062 -30.527344 47.496094 -26.441406 47.902344 -23.546875 C 48.070312 -22.332031 48.242188 -21.410156 48.410156 -20.78125 C 48.433594 -20.695312 48.453125 -20.628906 48.46875 -20.578125 C 48.46875 -20.585938 48.457031 -20.613281 48.441406 -20.652344 C 48.265625 -21.074219 47.996094 -21.511719 47.632812 -21.964844 L 47.71875 -21.855469 L 47.800781 -21.746094 C 47.339844 -22.359375 46.871094 -22.820312 46.394531 -23.128906 C 46.453125 -23.089844 46.617188 -23.011719 46.882812 -22.886719 C 47.859375 -22.433594 49.300781 -21.898438 51.207031 -21.273438 C 54.511719 -20.191406 57.152344 -18.828125 59.132812 -17.1875 C 60.566406 -16.003906 61.695312 -14.65625 62.519531 -13.152344 C 63.527344 -11.3125 64.03125 -9.355469 64.03125 -7.285156 C 64.03125 -3.582031 62.777344 -0.371094 60.269531 2.339844 C 58.316406 4.457031 55.695312 6.074219 52.402344 7.191406 C 47.738281 8.78125 40.675781 9.574219 31.214844 9.574219 C 21.710938 9.574219 14.578125 8.789062 9.820312 7.21875 C 6.484375 6.117188 3.824219 4.523438 1.835938 2.4375 C -0.761719 -0.289062 -2.058594 -3.527344 -2.058594 -7.285156 C -2.058594 -9.367188 -1.550781 -11.332031 -0.53125 -13.179688 C 0.300781 -14.683594 1.4375 -16.027344 2.878906 -17.210938 C 4.871094 -18.847656 7.523438 -20.203125 10.84375 -21.277344 C 12.789062 -21.910156 14.253906 -22.449219 15.238281 -22.894531 C 15.503906 -23.011719 15.660156 -23.089844 15.710938 -23.121094 C 15.148438 -22.765625 14.605469 -22.234375 14.09375 -21.523438 L 14.210938 -21.691406 L 14.339844 -21.847656 C 14.019531 -21.449219 13.773438 -21.058594 13.609375 -20.683594 C 13.585938 -20.636719 13.574219 -20.605469 13.566406 -20.582031 C 13.574219 -20.613281 13.589844 -20.660156 13.609375 -20.722656 C 13.761719 -21.242188 13.914062 -22.011719 14.074219 -23.03125 C 14.460938 -25.546875 14.773438 -29.082031 15.007812 -33.640625 C 15.5 -43.199219 15.746094 -60.8125 15.746094 -86.480469 C 15.746094 -111.917969 15.5 -129.375 15.007812 -138.859375 C 14.773438 -143.375 14.460938 -146.878906 14.074219 -149.375 C 13.917969 -150.382812 13.761719 -151.144531 13.613281 -151.660156 C 13.59375 -151.71875 13.582031 -151.765625 13.570312 -151.792969 C 13.578125 -151.773438 13.589844 -151.738281 13.613281 -151.691406 C 13.777344 -151.320312 14.019531 -150.933594 14.339844 -150.535156 L 14.210938 -150.695312 L 14.09375 -150.859375 C 14.605469 -150.152344 15.148438 -149.621094 15.710938 -149.265625 C 15.660156 -149.296875 15.503906 -149.371094 15.238281 -149.492188 C 14.253906 -149.9375 12.789062 -150.476562 10.84375 -151.105469 C 7.554688 -152.175781 4.925781 -153.5 2.949219 -155.085938 C 1.503906 -156.246094 0.363281 -157.566406 -0.476562 -159.046875 C -1.53125 -160.902344 -2.058594 -162.882812 -2.058594 -164.984375 C -2.058594 -168.449219 -0.972656 -171.503906 1.195312 -174.152344 C 2.976562 -176.328125 5.394531 -178.039062 8.445312 -179.28125 C 12.832031 -181.066406 18.765625 -181.960938 26.246094 -181.960938 C 32.425781 -181.960938 37.398438 -181.128906 41.160156 -179.46875 C 45.242188 -177.667969 48.984375 -174.429688 52.386719 -169.746094 L 45.207031 -164.523438 L 52.199219 -169.996094 C 53.640625 -168.15625 56.429688 -164.425781 60.566406 -158.804688 C 91.144531 -117.3125 122.648438 -76.898438 155.074219 -37.558594 L 148.222656 -31.910156 L 139.34375 -31.910156 L 139.34375 -86.136719 C 139.34375 -113.558594 139.097656 -131.5625 138.605469 -140.140625 C 138.375 -144.191406 138.066406 -147.339844 137.6875 -149.59375 C 137.539062 -150.476562 137.394531 -151.144531 137.253906 -151.589844 L 137.269531 -151.578125 C 137.425781 -151.242188 137.648438 -150.894531 137.933594 -150.535156 L 137.808594 -150.695312 L 137.6875 -150.859375 C 138.203125 -150.152344 138.742188 -149.621094 139.304688 -149.265625 C 139.257812 -149.296875 139.097656 -149.371094 138.832031 -149.492188 C 137.847656 -149.9375 136.382812 -150.476562 134.4375 -151.105469 C 131.148438 -152.175781 128.519531 -153.5 126.546875 -155.085938 C 125.101562 -156.246094 123.957031 -157.566406 123.117188 -159.046875 C 122.0625 -160.902344 121.535156 -162.882812 121.535156 -164.984375 C 121.535156 -168.730469 122.800781 -171.96875 125.328125 -174.703125 C 127.316406 -176.847656 129.984375 -178.480469 133.332031 -179.597656 C 138.058594 -181.171875 145.140625 -181.960938 154.582031 -181.960938 C 164.105469 -181.960938 171.21875 -181.167969 175.914062 -179.585938 C 179.246094 -178.464844 181.902344 -176.824219 183.875 -174.667969 C 186.375 -171.941406 187.625 -168.714844 187.625 -164.984375 C 187.625 -163.035156 187.167969 -161.1875 186.257812 -159.4375 C 185.507812 -157.996094 184.476562 -156.699219 183.164062 -155.546875 C 181.40625 -153.996094 179.03125 -152.648438 176.035156 -151.496094 L 175.667969 -151.355469 L 175.289062 -151.246094 C 174.804688 -151.109375 174.09375 -150.894531 173.148438 -150.601562 C 171.910156 -150.21875 171.066406 -149.875 170.625 -149.566406 C 170.738281 -149.644531 170.878906 -149.792969 171.054688 -150.007812 C 171.460938 -150.515625 171.753906 -151.117188 171.941406 -151.808594 C 171.675781 -150.859375 171.402344 -147.933594 171.121094 -143.03125 C 170.808594 -137.585938 170.546875 -130.117188 170.335938 -120.625 C 169.914062 -101.496094 169.703125 -75.085938 169.703125 -41.390625 L 169.703125 -8.324219 C 169.703125 -5.609375 169.578125 -3.347656 169.332031 -1.539062 C 168.925781 1.425781 168.050781 3.78125 166.707031 5.53125 C 165.285156 7.378906 163.4375 8.722656 161.171875 9.566406 C 159.5 10.1875 157.648438 10.5 155.621094 10.5 C 151.359375 10.5 147.5625 9.5 144.230469 7.5 C 141.433594 5.820312 137.863281 2.355469 133.519531 -2.894531 C 125.667969 -12.457031 112.101562 -29.660156 92.820312 -54.503906 C 73.566406 -79.316406 52.671875 -106.652344 30.140625 -136.515625 L 37.230469 -141.863281 Z M 28.347656 -141.863281 L 28.347656 -168.375 L 44.316406 -147.210938 C 66.800781 -117.414062 87.644531 -90.140625 106.851562 -65.390625 C 126.03125 -40.675781 139.480469 -23.617188 147.199219 -14.21875 C 148.871094 -12.195312 150.3125 -10.582031 151.523438 -9.371094 C 152.414062 -8.480469 153.03125 -7.933594 153.367188 -7.730469 C 153.890625 -7.417969 154.640625 -7.261719 155.621094 -7.261719 L 155.617188 -7.253906 C 155.425781 -7.222656 155.214844 -7.167969 154.984375 -7.082031 C 154.066406 -6.738281 153.28125 -6.144531 152.628906 -5.296875 C 152.164062 -4.691406 151.84375 -4.109375 151.675781 -3.550781 L 151.671875 -3.550781 C 151.695312 -3.65625 151.714844 -3.789062 151.738281 -3.949219 C 151.875 -4.957031 151.945312 -6.414062 151.945312 -8.324219 L 151.945312 -41.390625 C 151.945312 -75.21875 152.15625 -101.757812 152.582031 -121.015625 C 152.796875 -130.714844 153.066406 -138.394531 153.390625 -144.046875 C 153.746094 -150.242188 154.210938 -154.367188 154.792969 -156.425781 C 156.179688 -161.582031 160.558594 -165.300781 167.925781 -167.578125 C 168.984375 -167.902344 169.8125 -168.152344 170.410156 -168.320312 L 172.847656 -159.785156 L 169.660156 -168.070312 C 170.296875 -168.316406 170.8125 -168.546875 171.210938 -168.765625 C 171.332031 -168.832031 171.429688 -168.886719 171.5 -168.933594 L 171.511719 -168.941406 C 171.488281 -168.925781 171.464844 -168.902344 171.433594 -168.878906 C 171.085938 -168.570312 170.777344 -168.160156 170.507812 -167.644531 C 170.078125 -166.820312 169.863281 -165.933594 169.863281 -164.984375 C 169.863281 -164.109375 170.171875 -163.339844 170.78125 -162.675781 C 170.90625 -162.535156 171 -162.449219 171.054688 -162.417969 C 170.875 -162.523438 170.605469 -162.632812 170.246094 -162.757812 C 167.386719 -163.71875 162.167969 -164.199219 154.582031 -164.199219 C 147.0625 -164.199219 141.851562 -163.714844 138.949219 -162.746094 C 138.574219 -162.621094 138.292969 -162.507812 138.105469 -162.398438 C 138.15625 -162.425781 138.242188 -162.507812 138.367188 -162.640625 C 138.984375 -163.3125 139.296875 -164.09375 139.296875 -164.984375 C 139.296875 -166.011719 139.050781 -166.953125 138.5625 -167.816406 C 138.285156 -168.304688 137.988281 -168.675781 137.667969 -168.929688 C 137.710938 -168.898438 137.851562 -168.824219 138.09375 -168.707031 C 138.570312 -168.476562 139.183594 -168.238281 139.921875 -167.996094 C 142.488281 -167.164062 144.558594 -166.394531 146.136719 -165.679688 C 148.847656 -164.457031 150.820312 -163 152.050781 -161.304688 L 144.867188 -156.082031 L 151.800781 -161.628906 C 152.804688 -160.378906 153.601562 -158.808594 154.195312 -156.914062 C 154.582031 -155.6875 154.914062 -154.234375 155.199219 -152.542969 C 155.6875 -149.652344 156.066406 -145.855469 156.335938 -141.15625 C 156.847656 -132.238281 157.101562 -113.898438 157.101562 -86.136719 L 157.101562 -7.175781 L 141.371094 -26.261719 C 108.742188 -65.851562 77.039062 -106.523438 46.265625 -148.277344 C 42.230469 -153.753906 39.546875 -157.347656 38.214844 -159.050781 L 38.117188 -159.175781 L 38.023438 -159.300781 C 36.496094 -161.402344 35.152344 -162.707031 33.992188 -163.222656 C 32.511719 -163.875 29.929688 -164.199219 26.246094 -164.199219 C 21.082031 -164.199219 17.382812 -163.742188 15.140625 -162.832031 C 14.886719 -162.730469 14.707031 -162.640625 14.601562 -162.570312 C 14.691406 -162.628906 14.804688 -162.742188 14.933594 -162.902344 C 15.445312 -163.523438 15.699219 -164.21875 15.699219 -164.984375 C 15.699219 -166.011719 15.457031 -166.953125 14.964844 -167.816406 C 14.6875 -168.304688 14.390625 -168.675781 14.074219 -168.929688 C 14.113281 -168.898438 14.253906 -168.824219 14.496094 -168.707031 C 14.976562 -168.476562 15.585938 -168.238281 16.328125 -167.996094 C 18.890625 -167.164062 20.960938 -166.394531 22.539062 -165.679688 C 25.253906 -164.457031 27.222656 -163 28.453125 -161.304688 L 21.273438 -156.082031 L 28.207031 -161.628906 C 29.242188 -160.335938 30.054688 -158.6875 30.648438 -156.679688 C 31.019531 -155.410156 31.347656 -153.882812 31.625 -152.097656 C 32.105469 -149.003906 32.476562 -144.898438 32.742188 -139.78125 C 33.25 -129.992188 33.507812 -112.226562 33.507812 -86.480469 C 33.507812 -60.507812 33.25 -42.589844 32.742188 -32.726562 C 32.476562 -27.570312 32.105469 -23.4375 31.625 -20.324219 C 31.347656 -18.53125 31.023438 -17 30.652344 -15.726562 C 30.058594 -13.710938 29.246094 -12.050781 28.207031 -10.753906 L 21.273438 -16.300781 L 28.453125 -11.078125 C 27.222656 -9.386719 25.253906 -7.929688 22.539062 -6.703125 C 20.960938 -5.992188 18.890625 -5.222656 16.328125 -4.386719 C 15.601562 -4.152344 15 -3.917969 14.535156 -3.6875 C 14.378906 -3.613281 14.253906 -3.546875 14.15625 -3.484375 L 14.144531 -3.484375 C 14.460938 -3.742188 14.75 -4.113281 15.019531 -4.597656 C 15.472656 -5.421875 15.699219 -6.316406 15.699219 -7.285156 C 15.699219 -8.265625 15.367188 -9.105469 14.695312 -9.808594 C 14.613281 -9.898438 14.535156 -9.96875 14.460938 -10.023438 L 14.46875 -10.023438 C 14.679688 -9.90625 14.984375 -9.777344 15.386719 -9.644531 C 18.335938 -8.671875 23.613281 -8.1875 31.214844 -8.1875 C 38.714844 -8.1875 43.871094 -8.664062 46.683594 -9.621094 C 47.046875 -9.742188 47.316406 -9.859375 47.496094 -9.964844 C 47.441406 -9.933594 47.351562 -9.847656 47.226562 -9.710938 C 46.589844 -9.019531 46.269531 -8.210938 46.269531 -7.285156 C 46.269531 -6.328125 46.492188 -5.441406 46.941406 -4.625 C 47.207031 -4.140625 47.496094 -3.769531 47.8125 -3.507812 L 47.808594 -3.503906 C 47.714844 -3.5625 47.59375 -3.628906 47.441406 -3.703125 C 46.984375 -3.929688 46.394531 -4.160156 45.679688 -4.394531 C 43.117188 -5.234375 41.03125 -6.027344 39.425781 -6.769531 C 36.78125 -7.992188 34.835938 -9.433594 33.59375 -11.089844 L 40.699219 -16.417969 L 33.761719 -10.871094 C 32.683594 -12.21875 31.851562 -13.984375 31.265625 -16.160156 C 30.902344 -17.496094 30.585938 -19.136719 30.3125 -21.082031 C 29.832031 -24.507812 29.453125 -29.128906 29.167969 -34.949219 C 28.621094 -46.191406 28.347656 -63.367188 28.347656 -86.480469 Z M 28.347656 -141.863281 "/></g></g></g><g transform="matrix(1, 0, 0, 1, 0, 0)"><g clip-path="url(#37607712b4)"><g mask="url(#8976ccc259)"><g transform="matrix(1, 0, 0, 1, 0, 0)"><g clip-path="url(#b724a886db)"><g clip-path="url(#13c120277f)"><rect x="-201.3" fill="url(#c973247024)" width="777.6" height="777.599981" y="-201.299995"/></g></g></g></g></g></g></g></g></svg>